<svg xmlns:xlink="http://www.w3.org/1999/xlink"  xmlns="http://www.w3.org/2000/svg" width="100%" viewBox="0 0 161 187" fill="none" class="insignia-d"><path d="M154.423 55.811C152.332 50.0043 149.781 44.5893 146.761 39.5743C143.918 40.8806 140.758 41.6109 137.422 41.6109C125.09 41.6109 115.095 31.615 115.095 19.2836C115.095 16.2383 115.703 13.3417 116.808 10.695C114.419 9.40918 111.941 8.23118 109.37 7.16921C98.649 2.74252 86.6425 0.523029 73.3583 0.523029H0.526001V186.581H73.3569C86.6425 186.581 98.6954 184.367 109.505 179.935C120.306 175.508 129.478 169.166 137.016 160.93C144.542 152.693 150.343 142.86 154.424 131.428C158.499 119.997 160.535 107.374 160.535 93.5478C160.535 79.7217 158.499 67.1528 154.424 55.8096" fill="currentColor"></path><path d="M152.887 19.9333C152.887 20.1121 152.882 20.2855 152.876 20.4657C152.687 26.4143 149.301 31.559 144.379 34.2276C143.579 34.6699 142.743 35.0384 141.868 35.3387C140.22 35.897 138.457 36.2028 136.619 36.2028C127.638 36.2028 120.351 28.9164 120.351 19.9347C120.351 18.2981 120.593 16.7174 121.046 15.2227C121.309 14.3491 121.647 13.511 122.047 12.7057C124.632 7.49818 129.928 3.87137 136.088 3.67618C136.267 3.67072 136.44 3.66526 136.621 3.66526C145.602 3.66526 152.889 10.9516 152.889 19.9333" fill="currentColor" class="insignin-circle"></path></svg>